<?xml version="1.0" encoding="UTF-8"?>
<svg xmlns="http://www.w3.org/2000/svg" width="198" height="47" viewBox="0 0 198 47" fill="none">
  <path d="M15.1057 27.8152L24.5039 7.90883L29.0349 7.70239L19.783 27.2989L15.1057 27.8152Z" fill="#748AFF"></path>
  <path d="M15.1423 27.7379L24.5039 7.90899L21.7243 4.20581L12.4725 23.8023L15.1423 27.7379Z" fill="#5C6DC9"></path>
  <path d="M29.035 7.70238L24.504 7.90882L21.7244 4.20564L26.2594 4.19092L29.035 7.70238Z" fill="#ADBAFF"></path>
  <path d="M5.1051 36.6095L14.5033 16.7033L19.0342 16.4968L9.78239 36.0933L5.1051 36.6095Z" fill="#FFC839"></path>
  <path d="M5.1417 36.532L14.5033 16.7032L11.7237 13L2.47186 32.5964L5.1417 36.532Z" fill="#E1B951"></path>
  <path d="M19.0344 16.4968L14.5035 16.7033L11.7239 13.0001L16.2588 12.9854L19.0344 16.4968Z" fill="#FFDF8B"></path>
  <path d="M18.6218 35.9536L28.0199 16.0473L32.5509 15.8408L23.299 35.4373L18.6218 35.9536Z" fill="#FF6A7A"></path>
  <path d="M18.6583 35.8761L28.0199 16.0472L25.2403 12.344L15.9884 31.9404L18.6583 35.8761Z" fill="#CF3C4C"></path>
  <path d="M32.5507 15.8408L28.0197 16.0473L25.2401 12.3441L29.7749 12.3293L32.5507 15.8408Z" fill="#FF949F"></path>
  <path d="M10.9861 42.9355L20.3842 23.0292L24.9152 22.8228L15.6635 42.4192L10.9861 42.9355Z" fill="#10D890"></path>
  <path d="M11.0227 42.8582L20.3842 23.0293L17.6048 19.3262L8.35287 38.9226L11.0227 42.8582Z" fill="#20AB79"></path>
  <path d="M24.9152 22.8228L20.384 23.0292L17.6046 19.326L22.1394 19.3113L24.9152 22.8228Z" fill="#64F0BE"></path>
  <path d="M11.5282 10.1635L13.5843 5.81778L18.1154 5.61133L16.2054 9.64723L11.5282 10.1635Z" fill="#FFC839"></path>
  <path d="M11.5281 10.1637L13.5835 5.81768L10.804 2.1145L8.85825 6.22819L11.5281 10.1637Z" fill="#E1B951"></path>
  <path d="M18.1152 5.61156L13.5842 5.818L10.8047 2.11482L15.3395 2.1001L18.1152 5.61156Z" fill="#FFDF8B"></path>
  <path d="M21.2099 45.1597L22.9296 41.0108L27.147 40.6089L25.5494 44.462L21.2099 45.1597Z" fill="#FF6A7A"></path>
  <path d="M21.2099 45.1595L22.9291 41.0104L20.1674 37.6843L18.54 41.6117L21.2099 45.1595Z" fill="#CF3C4C"></path>
  <path d="M27.1472 40.6088L22.9298 41.0107L20.1681 37.6848L24.3978 37.4614L27.1472 40.6088Z" fill="#FF949F"></path>
  <path d="M45.7456 40.6241C45.4489 40.6241 45.1776 40.5717 44.9317 40.4667C44.6859 40.3618 44.4731 40.2124 44.2935 40.0186C44.114 39.8208 43.9734 39.5887 43.872 39.3222C43.7743 39.0516 43.7256 38.7571 43.7256 38.4381C43.7256 38.1313 43.7783 37.8466 43.8836 37.5843C43.9891 37.3219 44.1353 37.0917 44.3228 36.894C44.5102 36.6962 44.7288 36.5428 44.9786 36.4337C45.2283 36.3247 45.4996 36.2703 45.7925 36.2703C45.9915 36.2703 46.1848 36.3005 46.3722 36.361C46.5595 36.4216 46.7312 36.5064 46.8874 36.6153C47.0436 36.7204 47.1743 36.8436 47.2798 36.9847L46.7937 37.5358C46.6923 37.4269 46.5868 37.336 46.4775 37.2633C46.3722 37.1866 46.2609 37.1301 46.1438 37.0937C46.0306 37.0534 45.9135 37.0332 45.7925 37.0332C45.6129 37.0332 45.4432 37.0674 45.283 37.1361C45.127 37.2048 44.9903 37.3017 44.8732 37.4269C44.7599 37.552 44.6702 37.7014 44.6039 37.875C44.5375 38.0444 44.5044 38.2342 44.5044 38.4441C44.5044 38.6582 44.5355 38.8518 44.5979 39.0254C44.6644 39.199 44.7561 39.3484 44.8732 39.4736C44.9941 39.5987 45.1367 39.6956 45.3007 39.7643C45.4685 39.8288 45.652 39.8612 45.8511 39.8612C45.9798 39.8612 46.1048 39.843 46.2257 39.8066C46.3468 39.7703 46.4579 39.7198 46.5595 39.6552C46.665 39.5867 46.7606 39.508 46.8465 39.4191L47.2212 40.0428C47.1274 40.1518 47.0025 40.2507 46.8465 40.3396C46.6903 40.4283 46.5146 40.499 46.3195 40.5515C46.1282 40.5999 45.9369 40.6241 45.7456 40.6241Z" fill="white"></path>
  <path d="M48.712 40.5636V36.3247H49.4732V39.837H51.3643V40.5636H48.712Z" fill="white"></path>
  <path d="M52.8141 40.5636V39.8672H53.4873V37.0211H52.8141V36.3247H54.922V37.0211H54.2486V39.8672H54.922V40.5636H52.8141Z" fill="white"></path>
  <path d="M56.5958 40.5636V36.3247H57.281L59.6583 39.6371L59.5294 39.6613C59.5138 39.5482 59.5001 39.4333 59.4885 39.3161C59.4767 39.195 59.465 39.0698 59.4532 38.9407C59.4454 38.8115 59.4376 38.6762 59.4298 38.535C59.4259 38.3936 59.4221 38.2462 59.4181 38.0929C59.4143 37.9355 59.4123 37.7699 59.4123 37.5964V36.3247H60.1675V40.5636H59.4707L57.0819 37.2997L57.2341 37.2572C57.2537 37.4833 57.2692 37.6771 57.281 37.8385C57.2965 37.9959 57.3083 38.1333 57.3161 38.2504C57.3239 38.3634 57.3297 38.4583 57.3336 38.535C57.3414 38.6117 57.3454 38.6824 57.3454 38.7468C57.3492 38.8075 57.3512 38.866 57.3512 38.9225V40.5636H56.5958Z" fill="white"></path>
  <path d="M61.8473 40.5636V39.8672H62.5206V37.0211H61.8473V36.3247H63.9552V37.0211H63.2818V39.8672H63.9552V40.5636H61.8473Z" fill="white"></path>
  <path d="M67.2824 40.6241C66.9857 40.6241 66.7144 40.5717 66.4685 40.4667C66.2227 40.3618 66.0098 40.2124 65.8303 40.0186C65.6508 39.8208 65.5101 39.5887 65.4088 39.3222C65.311 39.0516 65.2624 38.7571 65.2624 38.4381C65.2624 38.1313 65.315 37.8466 65.4204 37.5843C65.5259 37.3219 65.6721 37.0917 65.8596 36.894C66.0469 36.6962 66.2656 36.5428 66.5153 36.4337C66.7653 36.3247 67.0366 36.2703 67.3292 36.2703C67.5283 36.2703 67.7216 36.3005 67.9089 36.361C68.0963 36.4216 68.268 36.5064 68.4242 36.6153C68.5804 36.7204 68.7111 36.8436 68.8166 36.9847L68.3305 37.5358C68.2291 37.4269 68.1236 37.336 68.0143 37.2633C67.9089 37.1866 67.7976 37.1301 67.6805 37.0937C67.5674 37.0534 67.4503 37.0332 67.3292 37.0332C67.1497 37.0332 66.9799 37.0674 66.8198 37.1361C66.6637 37.2048 66.5271 37.3017 66.41 37.4269C66.2967 37.552 66.2069 37.7014 66.1407 37.875C66.0743 38.0444 66.0411 38.2342 66.0411 38.4441C66.0411 38.6582 66.0723 38.8518 66.1347 39.0254C66.2011 39.199 66.2929 39.3484 66.41 39.4736C66.5309 39.5987 66.6735 39.6956 66.8375 39.7643C67.0053 39.8288 67.1888 39.8612 67.3879 39.8612C67.5166 39.8612 67.6416 39.843 67.7625 39.8066C67.8836 39.7703 67.9949 39.7198 68.0963 39.6552C68.2018 39.5867 68.2973 39.508 68.3833 39.4191L68.7579 40.0428C68.6642 40.1518 68.5393 40.2507 68.3833 40.3396C68.2271 40.4283 68.0514 40.499 67.8563 40.5515C67.665 40.5999 67.4737 40.6241 67.2824 40.6241Z" fill="white"></path>
  <path d="M69.7919 40.5636L71.3906 36.3247H72.1049L73.6917 40.5636H72.9011L72.023 38.1535C72.0034 38.1051 71.9761 38.0284 71.941 37.9234C71.9097 37.8183 71.8745 37.7054 71.8355 37.5842C71.7965 37.4591 71.7614 37.344 71.7301 37.239C71.6988 37.1301 71.6755 37.0514 71.6599 37.0029L71.8063 36.9969C71.7828 37.0776 71.7555 37.1683 71.7243 37.2693C71.693 37.3704 71.6599 37.4753 71.6248 37.5842C71.5897 37.6932 71.5544 37.7983 71.5193 37.8992C71.4881 38.0001 71.4588 38.0909 71.4315 38.1716L70.5532 40.5636H69.7919ZM70.5181 39.5947L70.7816 38.9104H72.6494L72.9304 39.5947H70.5181Z" fill="white"></path>
  <path d="M75.0398 40.5636V36.3247H75.8011V39.837H77.6924V40.5636H75.0398Z" fill="white"></path>
  <path d="M83.9895 40.5636V39.8672H84.6627V37.0211H83.9895V36.3247H86.0974V37.0211H85.424V39.8672H86.0974V40.5636H83.9895Z" fill="white"></path>
  <path d="M87.7714 40.5636V36.3247H88.4564L90.8337 39.6371L90.7048 39.6613C90.6892 39.5482 90.6757 39.4333 90.6639 39.3161C90.6521 39.195 90.6404 39.0698 90.6288 38.9407C90.621 38.8115 90.613 38.6762 90.6053 38.535C90.6015 38.3936 90.5975 38.2462 90.5937 38.0929C90.5897 37.9355 90.5877 37.7699 90.5877 37.5964V36.3247H91.3431V40.5636H90.6463L88.2573 37.2997L88.4095 37.2572C88.4291 37.4833 88.4446 37.6771 88.4564 37.8385C88.472 37.9959 88.4837 38.1333 88.4915 38.2504C88.4993 38.3634 88.5053 38.4583 88.5091 38.535C88.5168 38.6117 88.5208 38.6824 88.5208 38.7468C88.5246 38.8075 88.5266 38.866 88.5266 38.9225V40.5636H87.7714Z" fill="white"></path>
  <path d="M93.1456 40.5636V36.3247H93.8308L96.2081 39.6371L96.0792 39.6613C96.0637 39.5482 96.0499 39.4333 96.0383 39.3161C96.0265 39.195 96.0148 39.0698 96.003 38.9407C95.9952 38.8115 95.9875 38.6762 95.9797 38.535C95.9757 38.3936 95.9719 38.2462 95.9679 38.0929C95.9641 37.9355 95.9621 37.7699 95.9621 37.5964V36.3247H96.7174V40.5636H96.0206L93.6317 37.2997L93.7839 37.2572C93.8035 37.4833 93.8191 37.6771 93.8308 37.8385C93.8464 37.9959 93.8581 38.1333 93.8659 38.2504C93.8737 38.3634 93.8795 38.4583 93.8835 38.535C93.8913 38.6117 93.8952 38.6824 93.8952 38.7468C93.899 38.8075 93.901 38.866 93.901 38.9225V40.5636H93.1456Z" fill="white"></path>
  <path d="M100.288 40.624C99.9956 40.624 99.7243 40.5696 99.4746 40.4605C99.2246 40.3515 99.006 40.2001 98.8187 40.0063C98.6351 39.8086 98.4927 39.5764 98.3912 39.3101C98.2898 39.0435 98.239 38.753 98.239 38.438C98.239 38.123 98.2898 37.8325 98.3912 37.5659C98.4927 37.2996 98.6351 37.0695 98.8187 36.8757C99.006 36.6779 99.2246 36.5245 99.4746 36.4155C99.7243 36.3064 99.9956 36.252 100.288 36.252C100.585 36.252 100.858 36.3064 101.108 36.4155C101.358 36.5245 101.575 36.6779 101.758 36.8757C101.942 37.0735 102.084 37.3056 102.186 37.5721C102.287 37.8345 102.338 38.123 102.338 38.438C102.338 38.7488 102.287 39.0375 102.186 39.3039C102.084 39.5704 101.942 39.8025 101.758 40.0003C101.575 40.1981 101.358 40.3515 101.108 40.4605C100.858 40.5696 100.585 40.624 100.288 40.624ZM100.288 39.8731C100.476 39.8731 100.646 39.8389 100.798 39.7702C100.954 39.6975 101.089 39.5966 101.202 39.4674C101.315 39.3343 101.403 39.1809 101.465 39.0073C101.532 38.8337 101.565 38.6439 101.565 38.438C101.565 38.2321 101.532 38.0423 101.465 37.8687C101.403 37.6951 101.315 37.5437 101.202 37.4146C101.089 37.2814 100.954 37.1805 100.798 37.1118C100.646 37.0391 100.476 37.0029 100.288 37.0029C100.105 37.0029 99.9352 37.0391 99.779 37.1118C99.6228 37.1805 99.4881 37.2794 99.375 37.4086C99.2617 37.5377 99.1739 37.6891 99.1115 37.8627C99.0491 38.0363 99.0177 38.2281 99.0177 38.438C99.0177 38.6439 99.0491 38.8357 99.1115 39.0133C99.1739 39.1869 99.2617 39.3383 99.375 39.4674C99.4881 39.5966 99.6228 39.6975 99.779 39.7702C99.9352 39.8389 100.105 39.8731 100.288 39.8731Z" fill="white"></path>
  <path d="M104.877 40.5636L103.238 36.3247H104.069L104.983 38.753C105.029 38.8782 105.07 38.9911 105.106 39.0921C105.141 39.189 105.172 39.2777 105.199 39.3586C105.227 39.4393 105.25 39.518 105.27 39.5947C105.293 39.6714 105.318 39.7521 105.346 39.837H105.182C105.209 39.7278 105.238 39.6209 105.27 39.516C105.301 39.407 105.336 39.2919 105.375 39.1708C105.418 39.0496 105.468 38.9104 105.527 38.753L106.382 36.3247H107.219L105.568 40.5636H104.877Z" fill="white"></path>
  <path d="M107.674 40.5636L109.273 36.3247H109.987L111.574 40.5636H110.783L109.905 38.1535C109.885 38.1051 109.858 38.0284 109.823 37.9234C109.792 37.8183 109.757 37.7054 109.718 37.5842C109.679 37.4591 109.643 37.344 109.612 37.239C109.581 37.1301 109.558 37.0514 109.542 37.0029L109.688 36.9969C109.665 37.0776 109.638 37.1683 109.606 37.2693C109.575 37.3704 109.542 37.4753 109.507 37.5842C109.472 37.6932 109.437 37.7983 109.402 37.8992C109.37 38.0001 109.341 38.0909 109.314 38.1716L108.435 40.5636H107.674ZM108.4 39.5947L108.664 38.9104H110.532L110.813 39.5947H108.4Z" fill="white"></path>
  <path d="M113.45 40.5636V37.0514H112.279V36.3247H115.418V37.0514H114.211V40.5636H113.45Z" fill="white"></path>
  <path d="M116.744 40.5636V39.8672H117.417V37.0211H116.744V36.3247H118.852V37.0211H118.178V39.8672H118.852V40.5636H116.744Z" fill="white"></path>
  <path d="M121.714 40.5636L120.075 36.3247H120.906L121.82 38.753C121.867 38.8782 121.908 38.9911 121.943 39.0921C121.978 39.189 122.009 39.2777 122.036 39.3586C122.064 39.4393 122.087 39.518 122.107 39.5947C122.13 39.6714 122.156 39.7521 122.183 39.837H122.019C122.046 39.7278 122.075 39.6209 122.107 39.516C122.138 39.407 122.173 39.2919 122.212 39.1708C122.255 39.0496 122.306 38.9104 122.364 38.753L123.219 36.3247H124.056L122.405 40.5636H121.714Z" fill="white"></path>
  <path d="M125.408 40.5636V36.3247H128.09V37.0392H126.158V39.849H128.113V40.5636H125.408ZM125.76 38.7468V38.0444H127.791V38.7468H125.76Z" fill="white"></path>
  <path d="M131.738 40.5636L133.336 36.3247H134.051L135.637 40.5636H134.847L133.969 38.1535C133.949 38.1051 133.922 38.0284 133.887 37.9234C133.855 37.8183 133.82 37.7054 133.781 37.5842C133.742 37.4591 133.707 37.344 133.676 37.239C133.645 37.1301 133.621 37.0514 133.605 37.0029L133.752 36.9969C133.728 37.0776 133.701 37.1683 133.67 37.2693C133.639 37.3704 133.605 37.4753 133.57 37.5842C133.535 37.6932 133.5 37.7983 133.465 37.8992C133.434 38.0001 133.404 38.0909 133.377 38.1716L132.499 40.5636H131.738ZM132.464 39.5947L132.727 38.9104H134.595L134.876 39.5947H132.464Z" fill="white"></path>
  <path d="M136.985 40.5636V36.3247H137.67L140.048 39.6371L139.919 39.6613C139.903 39.5482 139.89 39.4333 139.878 39.3161C139.866 39.195 139.855 39.0698 139.843 38.9407C139.835 38.8115 139.827 38.6762 139.819 38.535C139.816 38.3936 139.812 38.2462 139.808 38.0929C139.804 37.9355 139.802 37.7699 139.802 37.5964V36.3247H140.557V40.5636H139.86L137.471 37.2997L137.624 37.2572C137.643 37.4833 137.659 37.6771 137.67 37.8385C137.686 37.9959 137.698 38.1333 137.706 38.2504C137.714 38.3634 137.719 38.4583 137.723 38.535C137.731 38.6117 137.735 38.6824 137.735 38.7468C137.739 38.8075 137.741 38.866 137.741 38.9225V40.5636H136.985Z" fill="white"></path>
  <path d="M142.36 40.5636V36.3247H144.005C144.302 36.3247 144.569 36.3752 144.807 36.4761C145.049 36.577 145.256 36.7224 145.428 36.912C145.604 37.1018 145.736 37.3259 145.826 37.5842C145.92 37.8426 145.967 38.1293 145.967 38.4441C145.967 38.7591 145.92 39.0476 145.826 39.3101C145.736 39.5684 145.606 39.7925 145.434 39.9821C145.262 40.168 145.055 40.3113 144.813 40.4123C144.571 40.5132 144.302 40.5636 144.005 40.5636H142.36ZM143.121 39.9519L143.062 39.837H143.976C144.167 39.837 144.337 39.8045 144.485 39.74C144.638 39.6754 144.766 39.5826 144.872 39.4615C144.977 39.3404 145.057 39.195 145.112 39.0254C145.166 38.8518 145.194 38.6581 145.194 38.4441C145.194 38.2302 145.166 38.0384 145.112 37.8688C145.057 37.6952 144.975 37.548 144.866 37.4268C144.76 37.3057 144.634 37.2128 144.485 37.1483C144.337 37.0836 144.167 37.0514 143.976 37.0514H143.045L143.121 36.9485V39.9519Z" fill="white"></path>
  <path d="M150.738 40.5636V37.0514H149.566V36.3247H152.705V37.0514H151.499V40.5636H150.738Z" fill="white"></path>
  <path d="M154.154 40.5636V36.3247H156.836V37.0392H154.904V39.849H156.859V40.5636H154.154ZM154.506 38.7468V38.0444H156.537V38.7468H154.506Z" fill="white"></path>
  <path d="M160.255 40.6241C159.959 40.6241 159.688 40.5717 159.442 40.4667C159.196 40.3618 158.983 40.2124 158.803 40.0186C158.624 39.8208 158.483 39.5887 158.382 39.3222C158.284 39.0516 158.235 38.7571 158.235 38.4381C158.235 38.1313 158.288 37.8466 158.393 37.5843C158.499 37.3219 158.645 37.0917 158.833 36.894C159.02 36.6962 159.239 36.5428 159.488 36.4337C159.738 36.3247 160.01 36.2703 160.302 36.2703C160.501 36.2703 160.695 36.3005 160.882 36.361C161.069 36.4216 161.241 36.5064 161.397 36.6153C161.554 36.7204 161.684 36.8436 161.79 36.9847L161.304 37.5358C161.202 37.4269 161.097 37.336 160.987 37.2633C160.882 37.1866 160.771 37.1301 160.654 37.0937C160.541 37.0534 160.423 37.0332 160.302 37.0332C160.123 37.0332 159.953 37.0674 159.793 37.1361C159.637 37.2048 159.5 37.3017 159.383 37.4269C159.27 37.552 159.18 37.7014 159.114 37.875C159.047 38.0444 159.014 38.2342 159.014 38.4441C159.014 38.6582 159.045 38.8518 159.108 39.0254C159.174 39.199 159.266 39.3484 159.383 39.4736C159.504 39.5987 159.647 39.6956 159.81 39.7643C159.978 39.8288 160.162 39.8612 160.361 39.8612C160.49 39.8612 160.615 39.843 160.736 39.8066C160.857 39.7703 160.968 39.7198 161.069 39.6552C161.175 39.5867 161.27 39.508 161.356 39.4191L161.731 40.0428C161.637 40.1518 161.512 40.2507 161.356 40.3396C161.2 40.4283 161.024 40.499 160.829 40.5515C160.638 40.5999 160.447 40.6241 160.255 40.6241Z" fill="white"></path>
  <path d="M165.851 40.5636V36.3247H166.612V40.5636H165.851ZM163.222 40.5636V36.3247H163.983V40.5636H163.222ZM163.538 38.8195V38.0808H166.22V38.8195H163.538Z" fill="white"></path>
  <path d="M168.419 40.5636V36.3247H169.104L171.481 39.6371L171.353 39.6613C171.337 39.5482 171.323 39.4333 171.311 39.3161C171.3 39.195 171.288 39.0698 171.276 38.9407C171.269 38.8115 171.261 38.6762 171.253 38.535C171.249 38.3936 171.245 38.2462 171.241 38.0929C171.237 37.9355 171.235 37.7699 171.235 37.5964V36.3247H171.991V40.5636H171.294L168.905 37.2997L169.057 37.2572C169.077 37.4833 169.092 37.6771 169.104 37.8385C169.12 37.9959 169.131 38.1333 169.139 38.2504C169.147 38.3634 169.153 38.4583 169.157 38.535C169.165 38.6117 169.168 38.6824 169.168 38.7468C169.172 38.8075 169.174 38.866 169.174 38.9225V40.5636H168.419Z" fill="white"></path>
  <path d="M175.562 40.624C175.269 40.624 174.998 40.5696 174.748 40.4605C174.498 40.3515 174.279 40.2001 174.092 40.0063C173.908 39.8086 173.766 39.5764 173.664 39.3101C173.563 39.0435 173.512 38.753 173.512 38.438C173.512 38.123 173.563 37.8325 173.664 37.5659C173.766 37.2996 173.908 37.0695 174.092 36.8757C174.279 36.6779 174.498 36.5245 174.748 36.4155C174.998 36.3064 175.269 36.252 175.562 36.252C175.858 36.252 176.131 36.3064 176.381 36.4155C176.631 36.5245 176.848 36.6779 177.031 36.8757C177.215 37.0735 177.357 37.3056 177.459 37.5721C177.56 37.8345 177.611 38.123 177.611 38.438C177.611 38.7488 177.56 39.0375 177.459 39.3039C177.357 39.5704 177.215 39.8025 177.031 40.0003C176.848 40.1981 176.631 40.3515 176.381 40.4605C176.131 40.5696 175.858 40.624 175.562 40.624ZM175.562 39.8731C175.749 39.8731 175.919 39.8389 176.071 39.7702C176.227 39.6975 176.362 39.5966 176.475 39.4674C176.588 39.3343 176.676 39.1809 176.739 39.0073C176.805 38.8337 176.838 38.6439 176.838 38.438C176.838 38.2321 176.805 38.0423 176.739 37.8687C176.676 37.6951 176.588 37.5437 176.475 37.4146C176.362 37.2814 176.227 37.1805 176.071 37.1118C175.919 37.0391 175.749 37.0029 175.562 37.0029C175.378 37.0029 175.208 37.0391 175.052 37.1118C174.896 37.1805 174.761 37.2794 174.648 37.4086C174.535 37.5377 174.447 37.6891 174.385 37.8627C174.322 38.0363 174.291 38.2281 174.291 38.438C174.291 38.6439 174.322 38.8357 174.385 39.0133C174.447 39.1869 174.535 39.3383 174.648 39.4674C174.761 39.5966 174.896 39.6975 175.052 39.7702C175.208 39.8389 175.378 39.8731 175.562 39.8731Z" fill="white"></path>
  <path d="M179.139 40.5636V36.3247H179.9V39.837H181.791V40.5636H179.139Z" fill="white"></path>
  <path d="M185.018 40.624C184.725 40.624 184.453 40.5696 184.203 40.4605C183.954 40.3515 183.736 40.2001 183.548 40.0063C183.365 39.8086 183.222 39.5764 183.121 39.3101C183.02 39.0435 182.969 38.753 182.969 38.438C182.969 38.123 183.02 37.8325 183.121 37.5659C183.222 37.2996 183.365 37.0695 183.548 36.8757C183.736 36.6779 183.954 36.5245 184.203 36.4155C184.453 36.3064 184.725 36.252 185.018 36.252C185.315 36.252 185.588 36.3064 185.838 36.4155C186.087 36.5245 186.305 36.6779 186.487 36.8757C186.672 37.0735 186.813 37.3056 186.915 37.5721C187.016 37.8345 187.067 38.123 187.067 38.438C187.067 38.7488 187.016 39.0375 186.915 39.3039C186.813 39.5704 186.672 39.8025 186.487 40.0003C186.305 40.1981 186.087 40.3515 185.838 40.4605C185.588 40.5696 185.315 40.624 185.018 40.624ZM185.018 39.8731C185.206 39.8731 185.374 39.8389 185.528 39.7702C185.684 39.6975 185.818 39.5966 185.932 39.4674C186.044 39.3343 186.133 39.1809 186.194 39.0073C186.261 38.8337 186.294 38.6439 186.294 38.438C186.294 38.2321 186.261 38.0423 186.194 37.8687C186.133 37.6951 186.044 37.5437 185.932 37.4146C185.818 37.2814 185.684 37.1805 185.528 37.1118C185.374 37.0391 185.206 37.0029 185.018 37.0029C184.835 37.0029 184.665 37.0391 184.509 37.1118C184.352 37.1805 184.218 37.2794 184.104 37.4086C183.992 37.5377 183.903 37.6891 183.841 37.8627C183.778 38.0363 183.747 38.2281 183.747 38.438C183.747 38.6439 183.778 38.8357 183.841 39.0133C183.903 39.1869 183.992 39.3383 184.104 39.4674C184.218 39.5966 184.352 39.6975 184.509 39.7702C184.665 39.8389 184.835 39.8731 185.018 39.8731Z" fill="white"></path>
  <path d="M190.458 40.6241C190.149 40.6241 189.865 40.5697 189.602 40.4606C189.342 40.3476 189.113 40.1922 188.918 39.9944C188.726 39.7965 188.578 39.5665 188.473 39.3039C188.368 39.0376 188.314 38.7489 188.314 38.4381C188.314 38.1313 188.368 37.8466 188.473 37.5843C188.581 37.3177 188.733 37.0877 188.929 36.894C189.124 36.6962 189.352 36.5428 189.615 36.4337C189.879 36.3247 190.165 36.2703 190.469 36.2703C190.684 36.2703 190.891 36.3005 191.09 36.361C191.289 36.4216 191.468 36.5064 191.629 36.6153C191.789 36.7244 191.921 36.8476 192.027 36.9847L191.546 37.5056C191.437 37.3966 191.323 37.3057 191.208 37.233C191.093 37.1603 190.974 37.1039 190.849 37.0634C190.724 37.0232 190.596 37.003 190.464 37.003C190.268 37.003 190.087 37.0392 189.919 37.1119C189.754 37.1846 189.611 37.2855 189.485 37.4147C189.365 37.5438 189.269 37.6952 189.199 37.8688C189.128 38.0424 189.094 38.2322 189.094 38.4381C189.094 38.6359 189.128 38.8236 189.199 39.0012C189.273 39.1788 189.374 39.3344 189.503 39.4675C189.631 39.6007 189.78 39.7056 189.948 39.7825C190.12 39.855 190.301 39.8914 190.493 39.8914C190.637 39.8914 190.771 39.8692 190.896 39.8248C191.021 39.7803 191.133 39.7198 191.231 39.6432C191.329 39.5624 191.401 39.4695 191.454 39.3646C191.508 39.2597 191.535 39.1466 191.535 39.0254V38.8922L191.64 39.0194H190.427V38.317H192.284C192.292 38.3614 192.297 38.4119 192.303 38.4683C192.306 38.5208 192.308 38.5733 192.308 38.6257C192.312 38.6742 192.313 38.7166 192.313 38.7531C192.313 39.0316 192.266 39.2859 192.172 39.516C192.08 39.7421 191.946 39.9379 191.774 40.1033C191.608 40.2689 191.41 40.3981 191.184 40.491C190.961 40.5797 190.719 40.6241 190.458 40.6241Z" fill="white"></path>
  <path d="M194.762 40.5636V38.4501L194.802 38.7468L193.146 36.3247H194.035L195.3 38.202L195.025 38.1838L196.167 36.3247H197.021L195.435 38.8135L195.522 38.4018V40.5636H194.762Z" fill="white"></path>
  <path fill-rule="evenodd" clip-rule="evenodd" d="M44.171 40.1417C43.9717 39.926 43.8168 39.6737 43.7059 39.3875L43.7052 39.3857L43.7046 39.3837C43.5971 39.0909 43.5446 38.7749 43.5446 38.438C43.5446 38.11 43.602 37.8014 43.7191 37.5146C43.8349 37.2315 43.9964 36.9816 44.2034 36.7666C44.411 36.5511 44.6537 36.3839 44.9295 36.2657C45.2079 36.1462 45.508 36.0877 45.8272 36.0877C46.0479 36.0877 46.2629 36.1207 46.4714 36.187C46.6771 36.2524 46.8675 36.3444 47.0413 36.4635C47.2156 36.5788 47.3643 36.716 47.4854 36.8756L47.5966 37.022L46.8323 37.8737L46.6719 37.7044C46.5807 37.6081 46.4882 37.5303 46.3948 37.4691L46.391 37.4667L46.3872 37.464C46.3 37.4015 46.2097 37.3569 46.1161 37.3283L46.1119 37.327L46.1078 37.3255C46.0176 37.2938 45.9244 37.278 45.8272 37.278C45.6756 37.278 45.5344 37.3064 45.4019 37.362C45.2734 37.4177 45.1617 37.4957 45.0655 37.5964C44.9731 37.6972 44.8977 37.8192 44.8408 37.9657L44.8401 37.9673C44.7856 38.1041 44.7565 38.2619 44.7565 38.4441C44.7565 38.6311 44.784 38.7942 44.8358 38.9363C44.8921 39.0804 44.9681 39.201 45.0629 39.301C45.1617 39.401 45.2781 39.4791 45.414 39.5356C45.5545 39.5883 45.7109 39.616 45.8857 39.616C45.9945 39.616 46.0991 39.6008 46.1999 39.5711C46.3029 39.5407 46.3957 39.499 46.4793 39.4469C46.5711 39.3881 46.6536 39.3212 46.7275 39.2462L46.9206 39.0498L47.5247 40.0382L47.4172 40.1612C47.3035 40.2913 47.1575 40.4029 46.9852 40.4993C46.8114 40.5964 46.6187 40.6722 46.4086 40.7277L46.4069 40.7281L46.4055 40.7285C46.1979 40.7802 45.9894 40.8063 45.7804 40.8063C45.4587 40.8063 45.1592 40.7502 44.8843 40.6348C44.6114 40.5204 44.3734 40.3565 44.1725 40.1433L44.171 40.1417ZM46.5939 39.634C46.4925 39.6974 46.3812 39.7469 46.2603 39.7826C46.1394 39.8183 46.0145 39.8362 45.8857 39.8362C45.6868 39.8362 45.5034 39.8045 45.3357 39.7411C45.1717 39.6735 45.0294 39.5784 44.9084 39.4555C44.7914 39.3325 44.6997 39.1857 44.6333 39.0152C44.571 38.8446 44.5397 38.6543 44.5397 38.4441C44.5397 38.2377 44.5728 38.0513 44.6392 37.8848C44.7055 37.7141 44.7952 37.5674 44.9084 37.4445C45.0255 37.3215 45.1621 37.2262 45.3181 37.1588C45.4781 37.0914 45.6477 37.0577 45.8272 37.0577C45.9481 37.0577 46.0652 37.0776 46.1783 37.1171C46.2954 37.1528 46.4066 37.2084 46.5119 37.2838C46.5655 37.3188 46.6178 37.358 46.6694 37.4013C46.7233 37.4467 46.7761 37.4968 46.8281 37.5516L47.3137 37.0102C47.2083 36.8712 47.0777 36.7502 46.9217 36.6471C46.7656 36.54 46.5939 36.4568 46.4066 36.3974C46.2194 36.3378 46.0261 36.3081 45.8272 36.3081C45.5346 36.3081 45.2635 36.3617 45.0137 36.4686C44.7641 36.5757 44.5455 36.7265 44.3583 36.9209C44.171 37.1153 44.0246 37.3414 43.9193 37.5991C43.8139 37.8569 43.7613 38.1365 43.7613 38.438C43.7613 38.7514 43.8101 39.041 43.9077 39.3066C44.009 39.5684 44.1495 39.7965 44.329 39.9909C44.5086 40.1812 44.7212 40.3281 44.967 40.4312C45.2128 40.5343 45.4839 40.5858 45.7804 40.5858C45.9717 40.5858 46.1628 40.5621 46.3539 40.5144C46.549 40.4629 46.7246 40.3935 46.8808 40.3062C47.0368 40.2189 47.1616 40.1218 47.2552 40.0147L46.8808 39.4019C46.829 39.4544 46.7738 39.5034 46.7152 39.5486C46.6762 39.5786 46.6359 39.607 46.5939 39.634ZM48.5285 40.7467V36.1412H49.7228V39.5921H51.6132V40.7467H48.5285ZM49.506 39.8125V36.3617H48.7453V40.5264H51.3964V39.8125H49.506ZM52.6285 40.7467V39.6218H53.3015V37.2661H52.6285V36.1412H55.1689V37.2661H54.4958V39.6218H55.1689V40.7467H52.6285ZM54.2791 39.8422V37.0457H54.9521V36.3617H52.8452V37.0457H53.5183V39.8422H52.8452V40.5264H54.9521V39.8422H54.2791ZM56.4085 40.7467V36.1412H57.4191L59.2471 38.645C59.2453 38.6124 59.2433 38.5792 59.2415 38.5459L59.2413 38.5426L59.2411 38.5395C59.2373 38.4005 59.2333 38.2555 59.2295 38.1047C59.2255 37.948 59.2235 37.7833 59.2235 37.611V36.1412H60.4119V40.7467H59.3909L57.5652 38.2947C57.5709 38.3796 57.5755 38.4533 57.5787 38.516C57.5865 38.5927 57.5908 38.6654 57.591 38.7341C57.595 38.7955 57.597 38.8556 57.597 38.9141V40.7467H56.4085ZM57.3744 38.7415C57.3744 38.678 57.3704 38.6086 57.3626 38.5333C57.3588 38.4579 57.3529 38.3646 57.3451 38.2537C57.3393 38.169 57.3315 38.0735 57.3215 37.9673C57.3179 37.9292 57.3141 37.8899 57.31 37.8491C57.3034 37.7611 57.2958 37.6633 57.287 37.5558L59.4988 40.5264H60.1953V36.3617H59.4402V37.611C59.4402 37.7815 59.4422 37.9442 59.4461 38.0988C59.4499 38.2497 59.4539 38.3943 59.4577 38.5333C59.4657 38.6721 59.4735 38.8049 59.4813 38.9319C59.4823 38.9448 59.4836 38.9578 59.4849 38.9707C59.4954 39.0838 59.5059 39.1939 59.5164 39.3008C59.5196 39.3332 59.5231 39.3657 59.5267 39.3979L57.31 36.3617H56.6253V40.5264H57.3802V38.9141C57.3802 38.8585 57.3782 38.8009 57.3744 38.7415ZM61.6573 40.7467V39.6218H62.3304V37.2661H61.6573V36.1412H64.1976V37.2661H63.5247V39.6218H64.1976V40.7467H61.6573ZM63.3079 39.8422V37.0457H63.981V36.3617H61.8741V37.0457H62.547V39.8422H61.8741V40.5264H63.981V39.8422H63.3079ZM65.6985 40.1433L65.6971 40.1417C65.4978 39.926 65.3429 39.6737 65.232 39.3875L65.2312 39.3857L65.2305 39.3837C65.1232 39.0909 65.0705 38.7749 65.0705 38.438C65.0705 38.11 65.1281 37.8014 65.2452 37.5146C65.3608 37.2315 65.5223 36.9816 65.7295 36.7666C65.9371 36.5511 66.1796 36.3839 66.4556 36.2657C66.734 36.1462 67.034 36.0877 67.3533 36.0877C67.5739 36.0877 67.7888 36.1207 67.9973 36.187C68.2032 36.2524 68.3936 36.3444 68.5674 36.4635C68.7417 36.5788 68.8904 36.716 69.0115 36.8756L69.1225 37.022L68.3583 37.8737L68.198 37.7044C68.1068 37.6081 68.0143 37.5303 67.9209 37.4691L67.9169 37.4667L67.9133 37.464C67.8259 37.4015 67.7357 37.3569 67.6422 37.3283L67.638 37.327L67.6338 37.3255C67.5435 37.2938 67.4505 37.278 67.3533 37.278C67.2016 37.278 67.0605 37.3064 66.928 37.362C66.7993 37.4177 66.6876 37.4957 66.5915 37.5962C66.499 37.6972 66.4237 37.8192 66.3667 37.9657L66.3662 37.9673C66.3117 38.1041 66.2824 38.2619 66.2824 38.4441C66.2824 38.6311 66.3101 38.7942 66.3619 38.9363C66.4181 39.0804 66.4942 39.201 66.589 39.301C66.6878 39.401 66.804 39.4791 66.9401 39.5356C67.0804 39.5883 67.2369 39.616 67.4118 39.616C67.5205 39.616 67.625 39.6008 67.726 39.5711C67.8289 39.5407 67.9218 39.499 68.0054 39.4469C68.097 39.3881 68.1795 39.3212 68.2534 39.2462L68.4466 39.0498L69.0508 40.0382L68.9433 40.1612C68.8296 40.2913 68.6834 40.4029 68.5113 40.4993C68.3375 40.5964 68.1448 40.6722 67.9345 40.7277L67.933 40.7281L67.9316 40.7285C67.724 40.7802 67.5155 40.8063 67.3064 40.8063C66.9848 40.8063 66.6851 40.7502 66.4104 40.6348C66.1374 40.5204 65.8994 40.3565 65.6985 40.1433ZM68.12 39.634C68.0184 39.6974 67.9073 39.7469 67.7864 39.7826C67.6653 39.8183 67.5406 39.8362 67.4118 39.8362C67.2129 39.8362 67.0295 39.8045 66.8617 39.7411C66.6978 39.6735 66.5553 39.5784 66.4344 39.4555C66.3173 39.3325 66.2257 39.1857 66.1593 39.0152C66.0969 38.8446 66.0658 38.6543 66.0658 38.4441C66.0658 38.2377 66.0989 38.0513 66.1653 37.8848C66.2315 37.7141 66.3213 37.5674 66.4344 37.4445C66.5515 37.3215 66.688 37.2262 66.8442 37.1588C67.004 37.0914 67.1738 37.0577 67.3533 37.0577C67.4742 37.0577 67.5913 37.0776 67.7044 37.1171C67.8215 37.1528 67.9326 37.2084 68.038 37.2838C68.0914 37.3188 68.1439 37.358 68.1954 37.4013C68.2494 37.4467 68.3022 37.4968 68.354 37.5516L68.8397 37.0102C68.7344 36.8712 68.6037 36.7502 68.4477 36.6471C68.2915 36.54 68.12 36.4568 67.9326 36.3974C67.7453 36.3378 67.5522 36.3081 67.3533 36.3081C67.0606 36.3081 66.7895 36.3617 66.5398 36.4686C66.29 36.5757 66.0716 36.7265 65.8842 36.9209C65.6971 37.1153 65.5507 37.3414 65.4453 37.5991C65.34 37.8569 65.2873 38.1365 65.2873 38.438C65.2873 38.7514 65.3362 39.041 65.4338 39.3066C65.5351 39.5684 65.6755 39.7965 65.8551 39.9909C66.0344 40.1812 66.2471 40.3281 66.4929 40.4312C66.7389 40.5343 67.01 40.5858 67.3064 40.5858C67.4975 40.5858 67.6888 40.5621 67.88 40.5144C68.0751 40.4629 68.2506 40.3935 68.4066 40.3062C68.5628 40.2189 68.6875 40.1218 68.7813 40.0147L68.4066 39.4019C68.3551 39.4544 68.2999 39.5034 68.2412 39.5486C68.2023 39.5786 68.162 39.607 68.12 39.634ZM69.4976 40.7467L71.2644 36.1412H72.2751L74.0288 40.7467H72.7724L72.4195 39.7948H71.0807L70.7251 40.7467H69.4976ZM70.9312 39.5744H72.5695L72.9225 40.5264H73.7125L72.1265 36.3617H71.4125L69.8147 40.5264H70.5756L70.9312 39.5744ZM71.1823 38.9022H72.3203L72.0445 38.1584C72.0251 38.1109 71.9978 38.0354 71.9627 37.9323C71.9337 37.8371 71.9017 37.735 71.8662 37.6263C71.8631 37.6172 71.8602 37.6083 71.8573 37.5991C71.8226 37.49 71.7911 37.3886 71.7625 37.2951C71.7596 37.2853 71.7565 37.2754 71.7536 37.2656C71.7511 37.2736 71.7486 37.2816 71.746 37.2898C71.7149 37.3889 71.6818 37.492 71.6465 37.5991C71.6438 37.6079 71.6409 37.6168 71.638 37.6256C71.6058 37.7232 71.5736 37.8176 71.5412 37.9085C71.51 38.0078 71.4807 38.0968 71.4534 38.1763L71.1823 38.9022ZM71.4965 38.6818H72.007L71.843 38.2395C71.821 38.1854 71.7924 38.1058 71.7578 38.0045L71.7565 38.0008L71.7555 37.9972C71.7531 37.9895 71.7507 37.9817 71.7484 37.9741C71.7479 37.9759 71.7471 37.9777 71.7466 37.9795C71.7153 38.0786 71.6858 38.1684 71.6581 38.2491L71.6572 38.2519L71.4965 38.6818ZM74.8433 40.7467V36.1412H76.0376V39.5921H77.9278V40.7467H74.8433ZM75.8208 39.8125V36.3617H75.0599V40.5264H77.7112V39.8125H75.8208ZM83.7884 40.7467V39.6218H84.4615V37.2661H83.7884V36.1412H86.3287V37.2661H85.6558V39.6218H86.3287V40.7467H83.7884ZM85.439 39.8422V37.0457H86.1121V36.3617H84.0052V37.0457H84.6781V39.8422H84.0052V40.5264H86.1121V39.8422H85.439ZM87.5685 40.7467V36.1412H88.5789L90.4069 38.645C90.4051 38.6124 90.4033 38.5792 90.4013 38.5459L90.4011 38.5426V38.5395C90.3971 38.4005 90.3933 38.2555 90.3894 38.1047C90.3854 37.948 90.3834 37.7833 90.3834 37.611V36.1412H91.5719V40.7467H90.551L88.7252 38.2947C88.731 38.3796 88.7355 38.4533 88.7387 38.516C88.7465 38.5927 88.7507 38.6654 88.7511 38.7341C88.7549 38.7955 88.7568 38.8556 88.7568 38.9141V40.7467H87.5685ZM88.5342 38.7415C88.5342 38.678 88.5304 38.6086 88.5226 38.5333C88.5187 38.4579 88.5129 38.3646 88.5051 38.2537C88.4993 38.169 88.4913 38.0735 88.4814 37.9673C88.4779 37.9292 88.474 37.8899 88.47 37.8491C88.4635 37.7611 88.4557 37.6633 88.4468 37.5558L90.6587 40.5264H91.3551V36.3617H90.6002V37.611C90.6002 37.7815 90.6022 37.9442 90.606 38.0988C90.61 38.2497 90.6138 38.3943 90.6178 38.5333C90.6255 38.6721 90.6333 38.8049 90.6411 38.9319C90.6424 38.9448 90.6436 38.9578 90.6447 38.9707C90.6552 39.0838 90.6657 39.1939 90.6762 39.3008C90.6797 39.3332 90.6831 39.3657 90.6867 39.3979L90.6201 39.3066L90.6199 39.3064L88.47 36.3617H87.7851V40.5264H88.5402V38.9141C88.5402 38.8585 88.5382 38.8009 88.5342 38.7415ZM92.94 40.7467V36.1412H93.9506L95.7786 38.645C95.7768 38.6124 95.775 38.5792 95.773 38.5459L95.7728 38.5426V38.5395C95.7688 38.4005 95.765 38.2555 95.7611 38.1047C95.7571 37.948 95.7551 37.7833 95.7551 37.611V36.1412H96.9436V40.7467H95.9227L94.0969 38.2947C94.1027 38.3796 94.1072 38.4533 94.1105 38.516C94.1182 38.5927 94.1224 38.6654 94.1228 38.7341C94.1266 38.7955 94.1285 38.8556 94.1285 38.9141V40.7467H92.94ZM93.9059 38.7415C93.9059 38.678 93.9021 38.6086 93.8942 38.5333C93.8904 38.4579 93.8846 38.3646 93.8766 38.2537C93.871 38.169 93.863 38.0735 93.8531 37.9673C93.8495 37.9292 93.8457 37.8899 93.8415 37.8491C93.8352 37.7611 93.8274 37.6633 93.8185 37.5558L96.0304 40.5264H96.7268V36.3617H95.9719V37.611C95.9719 37.7815 95.9739 37.9442 95.9777 38.0988C95.9817 38.2497 95.9855 38.3943 95.9895 38.5333C95.9972 38.6721 96.005 38.8049 96.0128 38.9319C96.0141 38.9448 96.0152 38.9578 96.0164 38.9707C96.0269 39.0838 96.0374 39.1939 96.0479 39.3008C96.0514 39.3332 96.0548 39.3657 96.0584 39.3979L95.9918 39.3066L95.9916 39.3064L93.8415 36.3617H93.1568V40.5264H93.9117V38.9141C93.9117 38.8585 93.9099 38.8009 93.9059 38.7415ZM98.672 40.1331L98.6706 40.1315C98.4668 39.9156 98.3093 39.6628 98.198 39.3755C98.0856 39.0857 98.0308 38.7723 98.0308 38.438C98.0308 38.1038 98.0856 37.7904 98.198 37.5006C98.3095 37.2129 98.4674 36.9614 98.672 36.7488C98.8798 36.5333 99.1223 36.366 99.3982 36.2478C99.6767 36.1283 99.9768 36.0698 100.296 36.0698C100.619 36.0698 100.921 36.1283 101.2 36.2478C101.476 36.3662 101.717 36.534 101.921 36.7504C102.125 36.9665 102.283 37.2191 102.394 37.5064C102.506 37.7928 102.561 38.1043 102.561 38.438C102.561 38.7687 102.506 39.08 102.394 39.3697C102.283 39.6569 102.125 39.9096 101.921 40.1257C101.717 40.3421 101.476 40.5099 101.2 40.6283C100.921 40.7478 100.619 40.8063 100.296 40.8063C99.9768 40.8063 99.6767 40.7478 99.3982 40.6283C99.1233 40.5104 98.8813 40.3459 98.6737 40.1348L98.672 40.1331ZM102.192 37.5873C102.091 37.3255 101.948 37.0974 101.765 36.9031C101.582 36.7087 101.365 36.5579 101.115 36.4507C100.866 36.3438 100.593 36.2903 100.296 36.2903C100.003 36.2903 99.7321 36.3438 99.4825 36.4507C99.2327 36.5579 99.0143 36.7087 98.827 36.9031C98.6436 37.0934 98.5012 37.3195 98.3998 37.5813C98.2983 37.8431 98.2476 38.1287 98.2476 38.438C98.2476 38.7474 98.2983 39.033 98.3998 39.2948C98.5012 39.5566 98.6436 39.7846 98.827 39.979C99.0143 40.1694 99.2327 40.3182 99.4825 40.4253C99.7321 40.5323 100.003 40.5858 100.296 40.5858C100.593 40.5858 100.866 40.5323 101.115 40.4253C101.365 40.3182 101.582 40.1674 101.765 39.973C101.948 39.7786 102.091 39.5506 102.192 39.2888C102.294 39.027 102.344 38.7435 102.344 38.438C102.344 38.1287 102.294 37.8451 102.192 37.5873ZM101.27 38.9184L101.271 38.9162C101.326 38.7741 101.355 38.6155 101.355 38.438C101.355 38.2606 101.326 38.1019 101.271 37.9598L101.27 37.9577L101.269 37.9557C101.216 37.8096 101.142 37.6855 101.048 37.5806L101.047 37.5793L101.046 37.578C100.954 37.4716 100.846 37.3922 100.72 37.3379L100.717 37.3365L100.714 37.3352C100.594 37.2785 100.455 37.2483 100.296 37.2483C100.141 37.2483 100.002 37.2783 99.8758 37.3359L99.8736 37.337L99.8716 37.3379C99.7442 37.3929 99.6354 37.4714 99.5435 37.5746C99.4501 37.6795 99.3763 37.8037 99.3227 37.9496C99.2704 38.0926 99.2427 38.2546 99.2427 38.438C99.2427 38.6168 99.2702 38.7794 99.3232 38.9277C99.3766 39.0731 99.4503 39.197 99.5435 39.3015C99.6358 39.405 99.7453 39.4861 99.8736 39.5451C100 39.5994 100.14 39.6278 100.296 39.6278C100.457 39.6278 100.596 39.599 100.717 39.5455C100.846 39.4866 100.955 39.4059 101.047 39.3028C101.142 39.1933 101.216 39.0665 101.269 38.9204L101.27 38.9184ZM101.209 39.4495C101.096 39.5764 100.961 39.6755 100.805 39.7469C100.653 39.8143 100.483 39.848 100.296 39.848C100.113 39.848 99.9429 39.8143 99.7867 39.7469C99.6307 39.6755 99.4961 39.5764 99.383 39.4495C99.2699 39.3225 99.1821 39.1738 99.1196 39.0033C99.0572 38.8288 99.0261 38.6403 99.0261 38.438C99.0261 38.2318 99.0572 38.0435 99.1196 37.8728C99.1821 37.7023 99.2699 37.5536 99.383 37.4266C99.4961 37.2997 99.6307 37.2026 99.7867 37.135C99.9429 37.0636 100.113 37.028 100.296 37.028C100.483 37.028 100.653 37.0636 100.805 37.135C100.961 37.2026 101.096 37.3017 101.209 37.4325C101.322 37.5594 101.41 37.7083 101.472 37.8788C101.539 38.0493 101.572 38.2358 101.572 38.438C101.572 38.6403 101.539 38.8268 101.472 38.9973C101.41 39.1678 101.322 39.3187 101.209 39.4495ZM104.736 40.7467L102.924 36.1412H104.223L105.19 38.6676L105.19 38.6679C105.215 38.7333 105.238 38.7955 105.26 38.8545C105.282 38.796 105.305 38.7344 105.329 38.6699C105.329 38.6694 105.33 38.6689 105.33 38.6683L106.235 36.1412H107.544L105.72 40.7467H104.736ZM105.532 38.7474C105.474 38.9022 105.423 39.039 105.38 39.158C105.378 39.1629 105.377 39.1678 105.375 39.1727C105.362 39.2145 105.348 39.2554 105.336 39.2957C105.314 39.3649 105.293 39.4321 105.275 39.4972C105.271 39.5092 105.267 39.5214 105.264 39.5336C105.26 39.519 105.256 39.5046 105.251 39.4901C105.251 39.4901 105.251 39.4899 105.251 39.4899C105.237 39.4414 105.222 39.3923 105.204 39.3423C105.187 39.2904 105.167 39.2352 105.146 39.1766C105.135 39.1454 105.123 39.1135 105.111 39.0806C105.076 38.9815 105.035 38.8703 104.988 38.7474L104.075 36.3617H103.244L104.882 40.5264H105.573L107.224 36.3617H106.387L105.532 38.7474ZM107.361 40.7467L109.128 36.1412H110.138L111.892 40.7467H110.636L110.283 39.7948H108.944L108.588 40.7467H107.361ZM108.794 39.5744H110.433L110.786 40.5264H111.576L109.99 36.3617H109.276L107.678 40.5264H108.439L108.794 39.5744ZM109.046 38.9022H110.184L109.908 38.1584C109.888 38.1109 109.861 38.0354 109.826 37.9323C109.797 37.8371 109.765 37.735 109.729 37.6263C109.727 37.6172 109.723 37.6083 109.721 37.5991C109.686 37.49 109.654 37.3886 109.626 37.2951C109.623 37.2853 109.62 37.2754 109.617 37.2656C109.614 37.2736 109.612 37.2816 109.609 37.2898C109.578 37.3889 109.545 37.492 109.51 37.5991C109.507 37.6079 109.504 37.6168 109.501 37.6256C109.469 37.7232 109.437 37.8176 109.405 37.9085C109.373 38.0078 109.344 38.0968 109.317 38.1763L109.046 38.9022ZM109.36 38.6818H109.87L109.706 38.2395C109.684 38.1854 109.656 38.1059 109.621 38.0045L109.62 38.0008L109.619 37.9972C109.616 37.9895 109.614 37.9817 109.612 37.9741C109.611 37.9759 109.61 37.9777 109.61 37.9795C109.579 38.0786 109.549 38.1684 109.521 38.2491L109.52 38.2519L109.36 38.6818ZM113.234 40.7467V37.2958H112.064V36.1412H115.634V37.2958H114.429V40.7467H113.234ZM114.212 37.0756H115.418V36.3617H112.281V37.0756H113.451V40.5264H114.212V37.0756ZM116.526 40.7467V39.6218H117.2V37.2661H116.526V36.1412H119.067V37.2661H118.394V39.6218H119.067V40.7467H116.526ZM118.177 39.8422V37.0457H118.85V36.3617H116.743V37.0457H117.416V39.8422H116.743V40.5264H118.85V39.8422H118.177ZM121.565 40.7467L119.752 36.1412H121.052L122.019 38.6676V38.6679C122.044 38.7333 122.067 38.7955 122.089 38.8545C122.11 38.796 122.134 38.7344 122.158 38.6699C122.158 38.6694 122.158 38.6689 122.159 38.6683L123.064 36.1412H124.373L122.548 40.7467H121.565ZM122.361 38.7474C122.302 38.9022 122.252 39.039 122.209 39.158C122.207 39.1629 122.205 39.1678 122.204 39.1727C122.19 39.2145 122.177 39.2554 122.165 39.2957C122.143 39.3649 122.122 39.4321 122.103 39.4972C122.1 39.5092 122.096 39.5214 122.093 39.5336C122.089 39.519 122.084 39.5046 122.08 39.4901L122.08 39.4899C122.066 39.4414 122.05 39.3923 122.033 39.3423C122.015 39.2904 121.996 39.2352 121.975 39.1766C121.963 39.1454 121.952 39.1135 121.94 39.0806C121.904 38.9815 121.863 38.8703 121.817 38.7474L120.904 36.3617H120.073L121.711 40.5264H122.402L124.052 36.3617H123.215L122.361 38.7474ZM125.187 40.7467V36.1412H128.301V37.284H126.369V37.8309H128.002V38.9618H126.369V39.6039H128.324V40.7467H125.187ZM126.152 39.8244V38.7415H127.785V38.0513H126.152V37.0636H128.084V36.3617H125.403V40.5264H128.107V39.8244H126.152ZM131.412 40.7467L133.179 36.1412H134.19L135.944 40.7467H134.687L134.334 39.7948H132.996L132.64 40.7467H131.412ZM132.846 39.5744H134.484L134.837 40.5264H135.627L134.041 36.3617H133.327L131.73 40.5264H132.49L132.846 39.5744ZM133.097 38.9022H134.235L133.959 38.1584C133.94 38.1109 133.912 38.0354 133.877 37.9323C133.849 37.8371 133.816 37.735 133.781 37.6263C133.778 37.6172 133.775 37.6083 133.772 37.5991C133.737 37.49 133.706 37.3886 133.677 37.2951C133.674 37.2853 133.671 37.2754 133.668 37.2656C133.666 37.2736 133.663 37.2816 133.661 37.2898C133.63 37.3889 133.596 37.492 133.561 37.5991C133.558 37.6079 133.556 37.6168 133.553 37.6256C133.52 37.7232 133.488 37.8176 133.456 37.9085C133.425 38.0078 133.396 38.0968 133.368 38.1763L133.097 38.9022ZM133.411 38.6818H133.922L133.758 38.2395C133.736 38.1854 133.707 38.1059 133.673 38.0045L133.671 38.0008L133.67 37.9972C133.668 37.9895 133.666 37.9817 133.663 37.9741C133.662 37.9759 133.662 37.9777 133.661 37.9795C133.63 38.0786 133.601 38.1684 133.573 38.2491L133.572 38.2519L133.411 38.6818ZM136.758 40.7467V36.1412H137.769L139.597 38.645C139.595 38.6124 139.593 38.5792 139.591 38.5459L139.591 38.5426V38.5395C139.587 38.4005 139.583 38.2555 139.579 38.1047C139.575 37.948 139.573 37.7833 139.573 37.611V36.1412H140.762V40.7467H139.741L137.915 38.2947C137.921 38.3796 137.925 38.4533 137.928 38.516C137.936 38.5927 137.94 38.6654 137.941 38.7339C137.944 38.7955 137.946 38.8556 137.946 38.9141V40.7467H136.758ZM137.724 38.7415C137.724 38.678 137.72 38.6086 137.712 38.5333C137.708 38.4579 137.702 38.3646 137.695 38.2537C137.689 38.169 137.681 38.0735 137.671 37.9673C137.667 37.9292 137.664 37.8899 137.659 37.8491C137.653 37.7611 137.645 37.6633 137.636 37.5558L139.848 40.5264H140.545V36.3617H139.79V37.611C139.79 37.7815 139.792 37.9442 139.796 38.0988C139.8 38.2497 139.803 38.3943 139.807 38.5333C139.815 38.6721 139.823 38.8049 139.831 38.9319C139.832 38.9448 139.833 38.9578 139.834 38.9707C139.845 39.0838 139.855 39.1939 139.866 39.3008C139.869 39.3332 139.873 39.3657 139.876 39.3979L139.81 39.3066L139.81 39.3064L137.659 36.3617H136.975V40.5264H137.73V38.9141C137.73 38.8585 137.728 38.8009 137.724 38.7415ZM142.13 40.7467V36.1412H143.991C144.311 36.1412 144.607 36.1948 144.874 36.3061C145.144 36.4167 145.377 36.577 145.571 36.7872C145.767 36.9963 145.915 37.2425 146.014 37.523C146.118 37.8045 146.168 38.1123 146.168 38.4441C146.168 38.7758 146.118 39.0851 146.015 39.3698C145.916 39.6502 145.77 39.8963 145.577 40.1058L145.576 40.1076C145.382 40.3137 145.149 40.4718 144.88 40.582C144.609 40.6931 144.311 40.7467 143.991 40.7467H142.13ZM145.811 39.2948C145.905 39.037 145.952 38.7534 145.952 38.4441C145.952 38.1345 145.905 37.8529 145.811 37.5991C145.721 37.3452 145.589 37.1251 145.413 36.9388C145.242 36.7522 145.035 36.6094 144.793 36.5103C144.555 36.4112 144.288 36.3617 143.991 36.3617H142.346V40.5264H143.991C144.288 40.5264 144.557 40.4769 144.799 40.3776C145.04 40.2785 145.247 40.1377 145.419 39.9552C145.591 39.7688 145.721 39.5487 145.811 39.2948ZM143.107 39.8125H143.962C144.153 39.8125 144.323 39.7806 144.471 39.7172C144.623 39.6538 144.752 39.5626 144.857 39.4436C144.962 39.3245 145.042 39.1818 145.097 39.0152C145.152 38.8446 145.179 38.6543 145.179 38.4441C145.179 38.2338 145.152 38.0453 145.097 37.8788C145.042 37.7083 144.961 37.5634 144.851 37.4445C144.746 37.3255 144.619 37.2343 144.471 37.1707C144.323 37.1073 144.153 37.0756 143.962 37.0756H143.107V39.8125ZM143.324 37.2958V39.5921H143.962C144.129 39.5921 144.27 39.5642 144.387 39.5141L144.389 39.5134C144.512 39.4618 144.613 39.3895 144.696 39.2961C144.779 39.2019 144.845 39.0866 144.891 38.9465C144.937 38.8015 144.962 38.6348 144.962 38.4441C144.962 38.253 144.937 38.0886 144.891 37.9484L144.891 37.9469C144.845 37.8039 144.778 37.688 144.693 37.5948L144.691 37.5933L144.69 37.5919C144.607 37.4975 144.506 37.425 144.387 37.3738C144.27 37.3237 144.129 37.2958 143.962 37.2958H143.324ZM150.503 40.7467V37.2958H149.333V36.1412H152.903V37.2958H151.698V40.7467H150.503ZM151.481 37.0756H152.686V36.3617H149.55V37.0756H150.72V40.5264H151.481V37.0756ZM153.918 40.7467V36.1412H157.032V37.284H155.101V37.8309H156.734V38.9618H155.101V39.6039H157.056V40.7467H153.918ZM154.884 39.8244V38.7415H156.517V38.0513H154.884V37.0636H156.815V36.3617H154.135V40.5264H156.839V39.8244H154.884ZM158.625 40.1433L158.624 40.1417C158.425 39.926 158.27 39.6737 158.159 39.3875L158.158 39.3857L158.157 39.3837C158.05 39.0909 157.997 38.7749 157.997 38.438C157.997 38.11 158.055 37.8014 158.172 37.5146C158.288 37.2315 158.449 36.9816 158.656 36.7666C158.864 36.5511 159.107 36.3839 159.382 36.2657C159.661 36.1462 159.961 36.0877 160.28 36.0877C160.501 36.0877 160.716 36.1207 160.924 36.187C161.13 36.2524 161.32 36.3444 161.494 36.4633C161.668 36.5788 161.817 36.716 161.938 36.8756L162.049 37.022L161.285 37.8737L161.125 37.7044C161.034 37.6081 160.941 37.5303 160.848 37.4691L160.844 37.4667L160.84 37.464C160.753 37.4015 160.663 37.3569 160.569 37.3283L160.565 37.327L160.561 37.3255C160.47 37.2938 160.377 37.278 160.28 37.278C160.128 37.278 159.987 37.3064 159.855 37.3621C159.726 37.4177 159.614 37.4957 159.518 37.5964C159.426 37.6972 159.351 37.8192 159.294 37.9657L159.293 37.9673C159.238 38.1041 159.209 38.2619 159.209 38.4441C159.209 38.6311 159.237 38.7942 159.289 38.9363C159.345 39.0804 159.421 39.2012 159.516 39.3012C159.615 39.401 159.731 39.4791 159.867 39.5356C160.007 39.5883 160.164 39.616 160.339 39.616C160.447 39.616 160.552 39.6008 160.653 39.5711C160.756 39.5407 160.848 39.4992 160.932 39.4469C161.024 39.3882 161.106 39.3212 161.18 39.2462L161.373 39.0498L161.978 40.0382L161.87 40.1612C161.756 40.2913 161.61 40.4029 161.438 40.4993C161.264 40.5964 161.072 40.6722 160.861 40.7277L160.86 40.7281L160.858 40.7285C160.651 40.7802 160.442 40.8063 160.233 40.8063C159.912 40.8063 159.612 40.7502 159.337 40.6348C159.064 40.5204 158.826 40.3565 158.625 40.1433ZM161.047 39.634C160.945 39.6974 160.834 39.7469 160.713 39.7826C160.592 39.8183 160.467 39.8362 160.339 39.8362C160.14 39.8362 159.956 39.8045 159.789 39.7411C159.625 39.6735 159.482 39.5784 159.361 39.4555C159.244 39.3325 159.153 39.1857 159.086 39.0152C159.024 38.8446 158.993 38.6543 158.993 38.4441C158.993 38.2377 159.026 38.0513 159.092 37.8848C159.158 37.7141 159.248 37.5674 159.361 37.4445C159.478 37.3215 159.615 37.2262 159.771 37.1588C159.931 37.0914 160.101 37.0577 160.28 37.0577C160.401 37.0577 160.518 37.0776 160.631 37.1171C160.748 37.1528 160.859 37.2084 160.965 37.2838C161.018 37.3188 161.071 37.358 161.122 37.4013C161.176 37.4467 161.229 37.4968 161.281 37.5516L161.767 37.0102C161.661 36.8712 161.531 36.7502 161.375 36.6471C161.218 36.54 161.047 36.4568 160.859 36.3974C160.672 36.3378 160.479 36.3081 160.28 36.3081C159.987 36.3081 159.716 36.3617 159.467 36.4686C159.217 36.5757 158.998 36.7265 158.811 36.9209C158.624 37.1153 158.477 37.3414 158.372 37.5991C158.267 37.8569 158.214 38.1365 158.214 38.438C158.214 38.7514 158.263 39.041 158.361 39.3066C158.462 39.5684 158.602 39.7965 158.782 39.9909C158.961 40.1812 159.174 40.3281 159.42 40.4312C159.666 40.5343 159.937 40.5858 160.233 40.5858C160.424 40.5858 160.616 40.5621 160.807 40.5144C161.002 40.4629 161.177 40.3935 161.333 40.3062C161.49 40.2189 161.615 40.1218 161.708 40.0147L161.333 39.4019C161.282 39.4544 161.227 39.5034 161.168 39.5486C161.129 39.5786 161.089 39.607 161.047 39.634ZM165.609 40.7467V39.0332H164.176V40.7467H162.981V36.1412H164.176V37.8666H165.609V36.1412H166.803V40.7467H165.609ZM165.826 38.087H163.959V36.3617H163.198V40.5264H163.959V38.8129H165.826V40.5264H166.587V36.3617H165.826V38.087ZM168.176 40.7467V36.1412H169.186L171.014 38.645C171.012 38.6124 171.011 38.5792 171.009 38.5459L171.009 38.5426L171.008 38.5395C171.005 38.4005 171.001 38.2555 170.997 38.1047C170.993 37.948 170.991 37.7833 170.991 37.611V36.1412H172.179V40.7467H171.158L169.333 38.2947C169.338 38.3796 169.343 38.4533 169.346 38.5158C169.354 38.5927 169.358 38.6656 169.358 38.7343C169.362 38.7956 169.364 38.8556 169.364 38.9141V40.7467H168.176ZM169.142 38.7415C169.142 38.678 169.138 38.6086 169.13 38.5333C169.126 38.4579 169.12 38.3646 169.112 38.2537C169.107 38.169 169.099 38.0735 169.089 37.9673C169.085 37.9292 169.081 37.8899 169.077 37.8491C169.071 37.7611 169.063 37.6633 169.054 37.5558L169.262 37.8349L171.266 40.5264H171.963V36.3617H171.208V37.611C171.208 37.7815 171.21 37.9442 171.214 38.0988C171.217 38.2497 171.221 38.3943 171.225 38.5333C171.233 38.6721 171.241 38.8049 171.249 38.9319C171.25 38.9448 171.251 38.9578 171.252 38.9707C171.263 39.0838 171.273 39.1939 171.284 39.3008C171.287 39.3332 171.29 39.3657 171.294 39.3979L171.227 39.3066L171.227 39.3064L169.077 36.3617H168.393V40.5264H169.148V38.9141C169.148 38.8585 169.146 38.8009 169.142 38.7415ZM169.329 38.2384C169.329 38.2382 169.329 38.238 169.329 38.2378L169.292 38.2406M173.908 40.1331L173.906 40.1315C173.702 39.9156 173.545 39.6628 173.434 39.3755C173.321 39.0857 173.267 38.7723 173.267 38.438C173.267 38.1038 173.321 37.7904 173.434 37.5006C173.545 37.2129 173.703 36.9614 173.908 36.7488C174.115 36.5333 174.358 36.366 174.634 36.2478C174.912 36.1283 175.212 36.0698 175.532 36.0698C175.854 36.0698 176.156 36.1283 176.435 36.2478C176.712 36.3662 176.953 36.534 177.157 36.7504C177.361 36.9665 177.518 37.2191 177.63 37.5064C177.742 37.7928 177.797 38.1043 177.797 38.438C177.797 38.7687 177.742 39.08 177.63 39.3697C177.518 39.6569 177.361 39.9096 177.157 40.1257C176.953 40.3421 176.712 40.5099 176.435 40.6283C176.156 40.7478 175.854 40.8063 175.532 40.8063C175.212 40.8063 174.912 40.7478 174.634 40.6283C174.359 40.5104 174.117 40.3459 173.91 40.1348L173.908 40.1331ZM177.428 37.5873C177.326 37.3255 177.184 37.0974 177.001 36.9031C176.817 36.7087 176.601 36.5579 176.351 36.4507C176.101 36.3438 175.828 36.2903 175.532 36.2903C175.239 36.2903 174.968 36.3438 174.718 36.4507C174.468 36.5579 174.25 36.7087 174.063 36.9031C173.879 37.0934 173.737 37.3195 173.635 37.5813C173.534 37.8431 173.483 38.1287 173.483 38.438C173.483 38.7474 173.534 39.033 173.635 39.2948C173.737 39.5566 173.879 39.7846 174.063 39.979C174.25 40.1694 174.468 40.3182 174.718 40.4253C174.968 40.5323 175.239 40.5858 175.532 40.5858C175.828 40.5858 176.101 40.5323 176.351 40.4253C176.601 40.3182 176.817 40.1674 177.001 39.973C177.184 39.7786 177.326 39.5506 177.428 39.2888C177.529 39.027 177.58 38.7435 177.58 38.438C177.58 38.1287 177.529 37.8451 177.428 37.5873ZM176.506 38.9184L176.506 38.9162C176.562 38.7741 176.591 38.6155 176.591 38.438C176.591 38.2606 176.562 38.1019 176.506 37.9598L176.506 37.9577L176.505 37.9557C176.451 37.8096 176.378 37.6855 176.284 37.5806L176.283 37.5793L176.282 37.578C176.19 37.4716 176.082 37.3922 175.956 37.3379L175.953 37.3365L175.95 37.3352C175.83 37.2785 175.691 37.2483 175.532 37.2483C175.377 37.2483 175.238 37.2783 175.111 37.3359L175.109 37.337L175.107 37.3379C174.98 37.3929 174.871 37.4714 174.779 37.5746C174.686 37.6795 174.612 37.8037 174.559 37.9496C174.506 38.0926 174.479 38.2546 174.479 38.438C174.479 38.6166 174.506 38.7789 174.559 38.927C174.612 39.0727 174.686 39.1968 174.779 39.3015C174.872 39.405 174.981 39.4861 175.109 39.5451C175.236 39.5994 175.376 39.6278 175.532 39.6278C175.692 39.6278 175.832 39.599 175.953 39.5456C176.081 39.4868 176.19 39.4061 176.283 39.3028C176.377 39.1933 176.451 39.0665 176.505 38.9204L176.506 38.9184ZM176.445 39.4495C176.331 39.5764 176.197 39.6755 176.041 39.7469C175.889 39.8143 175.719 39.848 175.532 39.848C175.348 39.848 175.179 39.8143 175.023 39.7469C174.866 39.6755 174.732 39.5764 174.619 39.4495C174.506 39.3225 174.418 39.1738 174.355 39.0033C174.293 38.8288 174.262 38.6403 174.262 38.438C174.262 38.2318 174.293 38.0435 174.355 37.8728C174.418 37.7023 174.506 37.5536 174.619 37.4266C174.732 37.2997 174.866 37.2026 175.023 37.135C175.179 37.0636 175.348 37.028 175.532 37.028C175.719 37.028 175.889 37.0636 176.041 37.135C176.197 37.2026 176.331 37.3017 176.445 37.4325C176.558 37.5594 176.646 37.7083 176.708 37.8788C176.774 38.0493 176.807 38.2358 176.807 38.438C176.807 38.6403 176.774 38.8268 176.708 38.9973C176.646 39.1678 176.558 39.3187 176.445 39.4495ZM178.891 40.7467V36.1412H180.085V39.5921H181.975V40.7467H178.891ZM179.868 39.8125V36.3617H179.107V40.5264H181.758V39.8125H179.868ZM183.36 40.1331L183.358 40.1315C183.154 39.9156 182.996 39.6628 182.886 39.3755C182.774 39.0857 182.717 38.7723 182.717 38.438C182.717 38.1038 182.774 37.7904 182.886 37.5006C182.996 37.2129 183.155 36.9614 183.36 36.7488C183.568 36.5333 183.811 36.366 184.086 36.2478C184.364 36.1283 184.665 36.0698 184.983 36.0698C185.306 36.0698 185.608 36.1283 185.887 36.2478C186.163 36.3662 186.404 36.534 186.609 36.7504C186.813 36.9665 186.971 37.2191 187.081 37.5064C187.193 37.7928 187.249 38.1043 187.249 38.438C187.249 38.7687 187.193 39.08 187.081 39.3697C186.971 39.6569 186.813 39.9096 186.609 40.1257C186.404 40.3421 186.163 40.5099 185.887 40.6283C185.608 40.7478 185.306 40.8063 184.983 40.8063C184.665 40.8063 184.364 40.7478 184.086 40.6283C183.811 40.5104 183.568 40.3459 183.362 40.1348L183.36 40.1331ZM186.88 37.5873C186.779 37.3255 186.636 37.0974 186.453 36.9031C186.268 36.7087 186.053 36.5579 185.803 36.4507C185.554 36.3438 185.28 36.2903 184.983 36.2903C184.69 36.2903 184.419 36.3438 184.171 36.4507C183.921 36.5579 183.702 36.7087 183.514 36.9031C183.331 37.0934 183.188 37.3195 183.087 37.5813C182.985 37.8431 182.935 38.1287 182.935 38.438C182.935 38.7474 182.985 39.033 183.087 39.2948C183.188 39.5566 183.331 39.7846 183.514 39.979C183.702 40.1694 183.921 40.3182 184.171 40.4253C184.419 40.5323 184.69 40.5858 184.983 40.5858C185.28 40.5858 185.554 40.5323 185.803 40.4253C186.053 40.3182 186.268 40.1674 186.453 39.973C186.636 39.7786 186.779 39.5506 186.88 39.2888C186.982 39.027 187.032 38.7435 187.032 38.438C187.032 38.1287 186.982 37.8451 186.88 37.5873ZM185.957 38.9184L185.959 38.9162C186.013 38.7741 186.042 38.6155 186.042 38.438C186.042 38.2606 186.013 38.1019 185.959 37.9598L185.957 37.9577V37.9557C185.903 37.8096 185.829 37.6855 185.736 37.5806L185.734 37.5793L185.733 37.578C185.642 37.4716 185.534 37.3922 185.407 37.3379L185.405 37.3365L185.401 37.3352C185.282 37.2785 185.143 37.2483 184.983 37.2483C184.828 37.2483 184.69 37.2783 184.564 37.3359L184.562 37.337L184.56 37.3379C184.431 37.3929 184.323 37.4714 184.23 37.5746C184.138 37.6795 184.064 37.8037 184.01 37.9496C183.957 38.0926 183.93 38.2546 183.93 38.438C183.93 38.6166 183.957 38.7789 184.01 38.927C184.064 39.0727 184.138 39.1968 184.23 39.3015C184.323 39.405 184.433 39.4861 184.562 39.5451C184.688 39.5994 184.828 39.6278 184.983 39.6278C185.144 39.6278 185.284 39.599 185.405 39.5456C185.534 39.4868 185.642 39.4061 185.734 39.3028C185.829 39.1933 185.903 39.0665 185.957 38.9204V38.9184ZM185.896 39.4495C185.783 39.5764 185.649 39.6755 185.492 39.7469C185.34 39.8143 185.17 39.848 184.983 39.848C184.801 39.848 184.63 39.8143 184.475 39.7469C184.317 39.6755 184.183 39.5764 184.071 39.4495C183.957 39.3225 183.87 39.1738 183.807 39.0033C183.745 38.8288 183.713 38.6403 183.713 38.438C183.713 38.2318 183.745 38.0435 183.807 37.8728C183.87 37.7023 183.957 37.5536 184.071 37.4266C184.183 37.2997 184.317 37.2026 184.475 37.135C184.63 37.0636 184.801 37.028 184.983 37.028C185.17 37.028 185.34 37.0636 185.492 37.135C185.649 37.2026 185.783 37.3017 185.896 37.4325C186.01 37.5594 186.096 37.7083 186.16 37.8788C186.227 38.0493 186.259 38.2358 186.259 38.438C186.259 38.6403 186.227 38.8268 186.16 38.9973C186.096 39.1678 186.01 39.3187 185.896 39.4495ZM189.485 40.6296L189.483 40.6286C189.197 40.5071 188.945 40.3392 188.73 40.1246L188.728 40.1229C188.516 39.9078 188.352 39.6575 188.236 39.3733V39.3722C188.118 39.082 188.062 38.7698 188.062 38.438C188.062 38.11 188.118 37.8014 188.236 37.5146V37.513C188.357 37.2251 188.525 36.9741 188.742 36.7626C188.958 36.5478 189.209 36.3817 189.497 36.2642V36.2638C189.79 36.1458 190.102 36.0877 190.431 36.0877C190.666 36.0877 190.894 36.1203 191.113 36.1859C191.331 36.2511 191.53 36.3431 191.711 36.4631C191.886 36.5814 192.036 36.7176 192.158 36.873L192.275 37.0233L191.515 37.8341L191.358 37.6804C191.26 37.5837 191.159 37.505 191.057 37.443L191.056 37.4421V37.4412C190.958 37.3794 190.855 37.3317 190.748 37.2978C190.645 37.2649 190.538 37.2483 190.426 37.2483C190.257 37.2483 190.105 37.2789 189.966 37.3379C189.828 37.398 189.707 37.4811 189.602 37.5873C189.503 37.6931 189.421 37.8181 189.361 37.9639C189.304 38.105 189.273 38.2622 189.273 38.438C189.273 38.604 189.304 38.7594 189.361 38.9062C189.425 39.0549 189.512 39.1835 189.62 39.2937C189.729 39.4045 189.854 39.4917 189.995 39.556C190.14 39.6156 190.292 39.6456 190.455 39.6456C190.578 39.6456 190.688 39.6271 190.789 39.5921C190.893 39.5558 190.981 39.5077 191.059 39.4484C191.133 39.3873 191.186 39.321 191.222 39.2498V39.2469L191.224 39.244C191.227 39.239 191.229 39.2343 191.231 39.2296H190.174V38.0987H192.427L192.46 38.2796C192.469 38.3327 192.476 38.3905 192.48 38.4521C192.484 38.5058 192.485 38.5596 192.487 38.6133C192.491 38.6617 192.493 38.7066 192.493 38.7474C192.493 39.047 192.44 39.3265 192.335 39.5826L192.333 39.5839C192.228 39.8333 192.08 40.0508 191.886 40.2344C191.696 40.4171 191.475 40.5589 191.226 40.6598L191.224 40.6605C190.974 40.7585 190.706 40.8063 190.42 40.8063C190.087 40.8063 189.774 40.7481 189.485 40.6296ZM191.736 40.0743C191.908 39.9116 192.042 39.7192 192.134 39.4972C192.228 39.2709 192.275 39.0212 192.275 38.7474C192.275 38.7117 192.274 38.6701 192.27 38.6224C192.27 38.5708 192.268 38.5193 192.265 38.4677C192.259 38.4122 192.254 38.3626 192.246 38.3191H190.391V39.0091H191.497V39.0152C191.497 39.0459 191.495 39.0762 191.492 39.1057C191.486 39.1481 191.477 39.1893 191.465 39.2296C191.452 39.2702 191.436 39.3099 191.416 39.3483C191.365 39.4515 191.291 39.5427 191.193 39.622C191.095 39.6974 190.983 39.757 190.858 39.8005C190.733 39.8442 190.599 39.8659 190.455 39.8659C190.265 39.8659 190.082 39.8304 189.912 39.759C189.743 39.6835 189.595 39.5804 189.466 39.4495C189.338 39.3187 189.237 39.1658 189.162 38.9913C189.092 38.8168 189.056 38.6324 189.056 38.438C189.056 38.2358 189.092 38.0493 189.162 37.8788C189.233 37.7083 189.327 37.5594 189.448 37.4325C189.573 37.3057 189.718 37.2064 189.881 37.135C190.049 37.0636 190.23 37.028 190.426 37.028C190.558 37.028 190.688 37.0477 190.813 37.0874C190.938 37.1271 191.056 37.1827 191.17 37.2541C191.28 37.3215 191.387 37.4048 191.49 37.5041C191.497 37.5099 191.503 37.5157 191.508 37.5217L191.989 37.0102C191.883 36.8752 191.751 36.7542 191.591 36.6471C191.43 36.54 191.251 36.4568 191.052 36.3974C190.853 36.3378 190.646 36.3081 190.431 36.3081C190.127 36.3081 189.843 36.3617 189.577 36.4686C189.316 36.5757 189.088 36.7265 188.893 36.9209C188.697 37.1113 188.545 37.3374 188.437 37.5991C188.332 37.8569 188.277 38.1365 188.277 38.438C188.277 38.7435 188.332 39.027 188.437 39.2888C188.542 39.5467 188.69 39.7728 188.88 39.9672C189.076 40.1616 189.304 40.3142 189.566 40.4253C189.827 40.5323 190.113 40.5858 190.42 40.5858C190.681 40.5858 190.923 40.5423 191.146 40.455C191.372 40.3638 191.57 40.2368 191.736 40.0743ZM194.505 40.7467V38.7527L192.688 36.1412H194.109L195.102 37.5899L196.007 36.1412H197.383L195.577 38.9283L195.482 38.8882V38.6716L195.658 38.4023V38.4011L195.66 38.398L195.7 38.4023V40.7467H194.505ZM194.985 38.1881L195.26 38.206L195.111 37.9875L196.127 36.3617H196.981M195.102 37.975L195.111 37.9875L194.985 38.1881M195.102 37.975L193.997 36.3617H193.106L194.558 38.4462L194.559 38.4499L194.722 38.6825V38.8137" fill="white"></path>
  <path d="M53.9425 29.876C52.4338 29.876 51.0398 29.6268 49.7604 29.1284C48.5 28.6108 47.402 27.8921 46.4663 26.972C45.5306 26.0327 44.8048 24.9306 44.2894 23.6656C43.7928 22.3813 43.5446 20.9724 43.5446 19.4391C43.5446 17.9439 43.8119 16.5638 44.3466 15.2987C44.8814 14.0337 45.6166 12.9411 46.5523 12.021C47.507 11.0818 48.6242 10.3534 49.9036 9.83587C51.2022 9.31834 52.6153 9.05957 54.143 9.05957C55.0978 9.05957 56.0335 9.18416 56.9502 9.43335C57.8667 9.68252 58.7166 10.0563 59.4995 10.5547C60.3015 11.0339 60.9889 11.6089 61.5619 12.2798L58.5828 15.7013C58.1818 15.2796 57.7521 14.9154 57.2938 14.6087C56.8546 14.2828 56.3677 14.0337 55.8329 13.8611C55.2983 13.6886 54.7255 13.6024 54.1143 13.6024C53.3505 13.6024 52.6247 13.7461 51.9374 14.0337C51.269 14.302 50.677 14.695 50.1613 15.2125C49.6649 15.7109 49.2734 16.3242 48.9871 17.0526C48.7006 17.781 48.5574 18.5956 48.5574 19.4964C48.5574 20.3783 48.7006 21.1833 48.9871 21.9117C49.2734 22.6209 49.6745 23.2342 50.1901 23.7518C50.7057 24.2693 51.3263 24.6623 52.0519 24.9306C52.7967 25.1989 53.6178 25.3332 54.5153 25.3332C55.1263 25.3332 55.7089 25.2468 56.2626 25.0743C56.8164 24.9018 57.3224 24.6719 57.7809 24.3844C58.2582 24.0777 58.6784 23.7326 59.0411 23.3494L61.39 27.0871C60.9125 27.6238 60.2729 28.1029 59.4708 28.5246C58.6878 28.9464 57.8095 29.2817 56.8356 29.5309C55.8807 29.761 54.9164 29.876 53.9425 29.876Z" fill="white"></path>
  <path d="M64.264 29.5885V8.31201H68.8472V29.5885H64.264Z" fill="white"></path>
  <path d="M73.1928 29.5885V14.3211H77.776V29.5885H73.1928ZM75.4843 11.3022C74.625 11.3022 73.947 11.1009 73.4506 10.6984C72.9731 10.2767 72.7346 9.68248 72.7346 8.91576C72.7346 8.22571 72.9827 7.66026 73.4792 7.2194C73.9758 6.77853 74.6442 6.55811 75.4843 6.55811C76.3437 6.55811 77.012 6.76895 77.4895 7.19066C77.9669 7.59318 78.2056 8.16822 78.2056 8.91576C78.2056 9.62498 77.9573 10.2 77.4609 10.6409C76.9834 11.0817 76.3246 11.3022 75.4843 11.3022Z" fill="white"></path>
  <path d="M82.0822 29.5885V14.3212H86.436L86.5794 17.4264L85.6627 17.7714C85.8728 17.0813 86.2451 16.4584 86.7799 15.9025C87.3336 15.3275 87.9925 14.8674 88.7563 14.5224C89.5202 14.1774 90.3222 14.0049 91.1625 14.0049C92.3082 14.0049 93.2727 14.2445 94.0556 14.7237C94.8386 15.1837 95.4304 15.8834 95.8314 16.8226C96.2325 17.7426 96.4331 18.8736 96.4331 20.2153V29.5885H91.8213V20.5891C91.8213 19.9757 91.7354 19.4678 91.5634 19.0652C91.3917 18.6626 91.1242 18.3655 90.7615 18.1739C90.4178 17.9631 89.9881 17.8672 89.4725 17.8864C89.0714 17.8864 88.6991 17.9535 88.3552 18.0877C88.0115 18.2027 87.7156 18.3848 87.4673 18.634C87.219 18.8639 87.0186 19.1323 86.8657 19.439C86.7321 19.7456 86.6654 20.0812 86.6654 20.4454V29.5885H84.4023C83.8677 29.5885 83.4094 29.5885 83.0275 29.5885C82.6454 29.5885 82.3303 29.5885 82.0822 29.5885Z" fill="white"></path>
  <path d="M107.426 29.876C105.841 29.876 104.428 29.5309 103.186 28.8409C101.964 28.1508 100.99 27.2115 100.265 26.0232C99.5582 24.8348 99.2049 23.4739 99.2049 21.9404C99.2049 20.4069 99.5582 19.0461 100.265 17.8576C100.99 16.6692 101.964 15.73 103.186 15.04C104.428 14.3499 105.841 14.0049 107.426 14.0049C109.011 14.0049 110.414 14.3499 111.637 15.04C112.878 15.73 113.852 16.6692 114.558 17.8576C115.265 19.0461 115.618 20.4069 115.618 21.9404C115.618 23.4739 115.265 24.8348 114.558 26.0232C113.852 27.2115 112.878 28.1508 111.637 28.8409C110.414 29.5309 109.011 29.876 107.426 29.876ZM107.426 25.9081C108.113 25.9081 108.724 25.7356 109.259 25.3907C109.794 25.0457 110.214 24.5761 110.519 23.9818C110.825 23.3876 110.968 22.7072 110.949 21.9404C110.968 21.1737 110.825 20.4933 110.519 19.899C110.214 19.2857 109.794 18.8066 109.259 18.4615C108.724 18.1164 108.113 17.9439 107.426 17.9439C106.738 17.9439 106.118 18.1164 105.564 18.4615C105.029 18.8066 104.609 19.2857 104.303 19.899C103.998 20.4933 103.855 21.1737 103.874 21.9404C103.855 22.7072 103.998 23.3876 104.303 23.9818C104.609 24.5761 105.029 25.0457 105.564 25.3907C106.118 25.7356 106.738 25.9081 107.426 25.9081Z" fill="white"></path>
  <path d="M122.864 29.5886L116.505 14.3213H121.575L125.356 25.7357L124.239 25.8508L128.135 14.3213H133.148L126.473 29.5886H122.864Z" fill="white"></path>
  <path d="M140.733 29.8472C139.454 29.8472 138.308 29.5118 137.296 28.8409C136.303 28.1508 135.511 27.2115 134.919 26.0232C134.327 24.8156 134.03 23.4546 134.03 21.9404C134.03 20.3878 134.327 19.0173 134.919 17.8289C135.511 16.6405 136.322 15.7108 137.353 15.04C138.384 14.3499 139.559 14.0049 140.876 14.0049C141.602 14.0049 142.261 14.1103 142.853 14.3212C143.464 14.532 143.999 14.8291 144.457 15.2125C144.915 15.5767 145.307 16.0079 145.632 16.5063C145.956 16.9855 146.195 17.503 146.348 18.0589L145.402 17.9439V14.3212H149.957V29.5885H145.316V25.9081L146.348 25.8795C146.195 26.4162 145.947 26.9241 145.603 27.4034C145.259 27.8825 144.839 28.3042 144.343 28.6684C143.846 29.0325 143.292 29.3202 142.681 29.5309C142.07 29.7417 141.421 29.8472 140.733 29.8472ZM141.994 25.9657C142.7 25.9657 143.311 25.8028 143.827 25.4769C144.343 25.151 144.743 24.691 145.03 24.0968C145.316 23.4834 145.46 22.7646 145.46 21.9404C145.46 21.1163 145.316 20.4069 145.03 19.8129C144.743 19.1995 144.343 18.7299 143.827 18.404C143.311 18.0589 142.7 17.8864 141.994 17.8864C141.306 17.8864 140.705 18.0589 140.189 18.404C139.693 18.7299 139.301 19.1995 139.015 19.8129C138.728 20.4069 138.585 21.1163 138.585 21.9404C138.585 22.7646 138.728 23.4834 139.015 24.0968C139.301 24.691 139.693 25.151 140.189 25.4769C140.705 25.8028 141.306 25.9657 141.994 25.9657Z" fill="white"></path>
  <path d="M155.261 29.5886V10.4685H159.844V29.5886H155.261ZM152.569 18.3465V14.3213H162.795V18.3465H152.569Z" fill="white"></path>
  <path d="M172.521 29.876C170.841 29.876 169.38 29.5406 168.138 28.8697C166.897 28.1796 165.933 27.25 165.245 26.0806C164.558 24.8923 164.214 23.541 164.214 22.0266C164.214 20.8574 164.405 19.7841 164.787 18.8066C165.169 17.8289 165.704 16.9855 166.391 16.2763C167.079 15.5479 167.89 14.992 168.826 14.6087C169.781 14.2061 170.821 14.0049 171.948 14.0049C173.017 14.0049 173.991 14.1966 174.87 14.5799C175.767 14.9633 176.541 15.5 177.19 16.19C177.839 16.8801 178.336 17.6947 178.679 18.634C179.023 19.5731 179.176 20.5987 179.138 21.7104L179.109 22.9467H166.993L166.334 20.359H175.385L174.898 20.9053V20.3302C174.86 19.8511 174.708 19.4294 174.44 19.0652C174.192 18.6819 173.858 18.3848 173.438 18.1739C173.017 17.9631 172.54 17.8576 172.005 17.8576C171.261 17.8576 170.621 18.011 170.086 18.3176C169.571 18.6053 169.179 19.0365 168.912 19.6116C168.644 20.1674 168.511 20.8574 168.511 21.6816C168.511 22.525 168.683 23.263 169.026 23.8955C169.389 24.5089 169.905 24.9881 170.573 25.3332C171.261 25.6782 172.072 25.8507 173.008 25.8507C173.657 25.8507 174.23 25.7549 174.727 25.5633C175.242 25.3714 175.796 25.0457 176.388 24.5855L178.536 27.6333C177.944 28.1508 177.314 28.5725 176.646 28.8984C175.977 29.2243 175.29 29.4639 174.583 29.6173C173.896 29.7898 173.208 29.876 172.521 29.876Z" fill="white"></path>
  <path d="M186.469 25.1031L184.779 21.653L191.883 14.3212H197.926L186.469 25.1031ZM182.057 29.5885V8.31201H186.641V29.5885H182.057ZM192.37 29.5885L187.012 22.6305L190.25 20.1003L197.783 29.5885H192.37Z" fill="white"></path>
</svg>
