<?xml version="1.0" encoding="UTF-8"?>
<svg xmlns="http://www.w3.org/2000/svg" width="67" height="67" viewBox="0 0 67 67" fill="none">
  <path d="M67 33.5C67 26.8743 65.0353 20.3974 61.3542 14.8884C57.6732 9.37935 52.4412 5.08557 46.3199 2.55004C40.1986 0.0144999 33.4628 -0.648912 26.9645 0.643693C20.4661 1.9363 14.497 5.12686 9.81192 9.81192C5.12686 14.497 1.9363 20.4661 0.643693 26.9645C-0.648912 33.4628 0.0145 40.1986 2.55004 46.3199C5.08557 52.4412 9.37935 57.6732 14.8884 61.3542C20.3974 65.0353 26.8743 67 33.5 67V33.5H67Z" fill="#748AFF"></path>
  <path d="M67.0001 52.7213C67.0001 60.0006 61.099 65.9016 53.8197 65.9016C46.5404 65.9016 40.6394 60.0006 40.6394 52.7213C40.6394 45.442 46.5404 39.541 53.8197 39.541C61.099 39.541 67.0001 45.442 67.0001 52.7213ZM47.7002 52.7213C47.7002 56.101 50.44 58.8408 53.8197 58.8408C57.1995 58.8408 59.9393 56.101 59.9393 52.7213C59.9393 49.3416 57.1995 46.6018 53.8197 46.6018C50.44 46.6018 47.7002 49.3416 47.7002 52.7213Z" fill="#10D890"></path>
</svg>
